<svg xmlns="http://www.w3.org/2000/svg" xmlns:xlink="http://www.w3.org/1999/xlink" viewBox="0 0 64 64"><defs><style>.cls-1{fill:none;}.cls-2{clip-path:url(#clip-path);}</style><clipPath id="clip-path" transform="translate(0 -1)"><rect class="cls-1" width="64" height="65"/></clipPath></defs><title>Asset 1</title><g id="Layer_2" data-name="Layer 2"><g id="Layer_1-2" data-name="Layer 1"><g class="cls-2"><path d="M23.44,51.78,20.2,55A7.25,7.25,0,0,1,10,55a7,7,0,0,1,0-10L21.94,33.16c2.47-2.45,7.12-6.06,10.5-2.7A4,4,0,1,0,38,24.83c-5.76-5.71-14.27-4.66-21.68,2.7L4.43,39.35a15,15,0,0,0,0,21.27,15.21,15.21,0,0,0,21.35,0L29,57.4a4,4,0,1,0-5.59-5.62ZM59.56,5.84C53.38-.3,44.73-.63,39,5l-4,4a4,4,0,1,0,5.59,5.63l4-4c3-2.95,6.85-1.72,9.38.79a7,7,0,0,1,0,10L41.26,34.09c-5.82,5.77-8.54,3.06-9.71,1.91A4,4,0,1,0,26,41.63a12.52,12.52,0,0,0,8.91,4c3.91,0,8-2,12-5.87L59.57,27.1a15,15,0,0,0,0-21.27Zm0,0" transform="translate(0 -1)"/></g></g></g></svg>