<svg xmlns="http://www.w3.org/2000/svg" viewBox="0 0 347.53 347.54"><title>phone</title><g id="Layer_2" data-name="Layer 2"><g id="Layer_1-2" data-name="Layer 1"><path d="M292.28,217.41c-12.56-12.4-28.24-12.4-40.72,0-9.52,9.44-19,18.88-28.4,28.48-2.56,2.64-4.72,3.2-7.84,1.44-6.16-3.36-12.72-6.08-18.64-9.76-27.6-17.36-50.72-39.68-71.2-64.8-10.16-12.48-19.2-25.84-25.52-40.88-1.28-3-1-5,1.44-7.52,9.52-9.2,18.8-18.64,28.16-28.08,13-13.12,13-28.48-.08-41.68-7.44-7.52-14.88-14.88-22.32-22.4-7.68-7.68-15.28-15.44-23-23C71.56-3.07,55.88-3.07,43.4,9.25c-9.6,9.44-18.8,19.12-28.56,28.4-9,8.56-13.6,19-14.56,31.28-1.52,19.92,3.36,38.72,10.24,57C24.6,163.89,46,197.57,72,228.45c35.12,41.76,77,74.8,126.08,98.64,22.08,10.72,45,19,69.84,20.32,17.12,1,32-3.36,43.92-16.72,8.16-9.12,17.36-17.44,26-26.16,12.8-13,12.88-28.64.16-41.44q-22.8-22.92-45.76-45.68Zm0,0"/></g></g></svg>